# AST/ASF file generated using VICON BodyLanguage
# -----------------------------------------------
:version 1.10
:name VICON
:units
  mass 1.0
  length 0.45
  angle deg
:documentation
   .ast/.asf automatically generated from VICON data using
   VICON BodyBuilder and BodyLanguage model FoxedUp or BRILLIANT.MOD
:root
   order TX TY TZ RX RY RZ
   axis XYZ
   position 0 0 0  
   orientation 0 0 0 
:bonedata
  begin
     id 1 
     name lhipjoint
     direction 0.521689 -0.742065 0.420928 
     length 2.47002 
     axis 0 0 0  XYZ
  end
  begin
     id 2 
     name lfemur
     direction 0.34202 -0.939693 0  
     length 7.24654  
     axis 0 0 20  XYZ
    dof rx ry rz
    limits (-160.0 20.0)
           (-70.0 70.0)
           (-60.0 70.0)
  end
  begin
     id 3 
     name ltibia
     direction 0.34202 -0.939693 0   
     length 8.04849   
     axis 0 0 20   XYZ
    dof rx
    limits (-10.0 170.0)
  end
  begin
     id 4 
     name lfoot
     direction 0.0745411 -0.2048 0.975961   
     length 1.72367   
     axis -90 7.62852e-016 20   XYZ
    dof rx rz
    limits (-45.0 90.0)
           (-70.0 20.0)
  end
  begin
     id 5 
     name ltoes
     direction 1.53556e-011 -4.21901e-011 1   
     length 0.87311   
     axis -90 7.62852e-016 20   XYZ
    dof rx
    limits (-90.0 20.0)
  end
  begin
     id 6 
     name rhipjoint
     direction -0.52849 -0.738415 0.418857   
     length 2.48223  
     axis 0 0 0  XYZ 
  end
  begin
     id 7 
     name rfemur
     direction -0.34202 -0.939693 0   
     length 7.15571   
     axis 0 0 -20   XYZ
    dof rx ry rz
    limits (-160.0 20.0)
           (-70.0 70.0)
           (-70.0 60.0)
  end
  begin
     id 8 
     name rtibia
     direction -0.34202 -0.939693 0   
     length 7.81659   
     axis 0 0 -20   XYZ
    dof rx
    limits (-10.0 170.0)
 end
 begin
     id 9 
     name rfoot
     direction -0.0917348 -0.252039 0.963359   
     length 1.84382  
     axis -90 -7.62852e-016 -20   XYZ
    dof rx rz
    limits (-45.0 90.0)
           (-20.0 70.0)
  end
  begin
     id 10 
     name rtoes
     direction -1.53551e-011 -4.21879e-011 1   
     length 0.927771   
     axis -90 -7.62852e-016 -20   XYZ
    dof rx
    limits (-90.0 20.0)
  end
  begin
     id 11 
     name lowerback
     direction 0.00583058 0.999822 0.0179296   
     length 2.1429   
     axis 0 0 0   XYZ
    dof rx ry rz
    limits (-20.0 45.0)
           (-30.0 30.0)
           (-30.0 30.0)
  end
  begin
     id 12 
     name upperback
     direction -0.0137999 0.999752 -0.0175071   
     length 2.14252   
     axis 0 0 0   XYZ
    dof rx ry rz
    limits (-20.0 45.0)
           (-30.0 30.0)
           (-30.0 30.0)
  end
  begin
     id 13 
     name thorax
     direction -0.0158036 0.99955 -0.0254909   
     length 2.1383   
     axis 0 0 0   XYZ
    dof rx ry rz
    limits (-20.0 45.0)
           (-30.0 30.0)
           (-30.0 30.0)
  end
  begin
     id 14 
     name lowerneck
     direction -0.0101179 0.999403 -0.0330262   
     length 1.65808   
     axis 0 0 0   XYZ
    dof rx ry rz
    limits (-20.0 45.0)
           (-30.0 30.0)
           (-30.0 30.0)
  end
  begin
     id 15 
     name upperneck
     direction 0.0497734 0.995978 -0.074501   
     length 1.5897   
     axis 0 0 0   XYZ
    dof rx ry rz
    limits (-20.0 45.0)
           (-30.0 30.0)
           (-30.0 30.0)
  end
  begin
     id 16
     name head
     direction 0.0189524 0.999519 -0.0245438  
     length 1.74024  
     axis 0 0 0   XYZ
    dof rx ry rz
    limits (-20.0 45.0)
           (-30.0 30.0)
           (-30.0 30.0)
  end
  begin
     id 17 
     name lclavicle
     direction 0.945604 0.324422 0.0241537  
     length 3.59089  
     axis 0 0 0   XYZ
    dof ry rz
    limits (-20.0 10.0)
           (0.0 20.0)
  end
  begin
     id 18 
     name lhumerus
     direction 1 -4.48964e-011 -2.63524e-027   
     length 5.2391   
     axis 180 -30 -90   XYZ
    dof rx ry rz
    limits (-60.0 90.0)
           (-90.0 90.0)
           (-90.0 90.0)
  end
  begin
     id 19
     name lradius
     direction 1 -4.48969e-011 3.86978e-028   
     length 3.31467   
     axis 180 -30 -90   XYZ
    dof rx
    limits (-10.0 170.0)
  end
  begin
     id 20
     name lwrist
     direction 1 -4.48963e-011 7.20928e-028   
     length 1.65734   
     axis -5.52449e-016 90 90   XYZ
    dof ry
    limits (-180.0 0.0)
 end
  begin
     id 21 
     name lhand
     direction 1 -4.48964e-011 1.44186e-027   
     length 0.9659   
     axis -9.20027e-016 90 90   XYZ
    dof rx rz
    limits (-90.0 90.0)
           (-45.0 45.0)
  end
  begin
     id 22 
     name lfingers
     direction 1 -4.48965e-011 2.88371e-027   
     length 0.778733   
     axis -1.84005e-015 90 90   XYZ
    dof rx
    limits (0.0 90.0)
  end
  begin
     id 23
     name lthumb
     direction 0.707107 -6.34931e-011 0.707107   
     length 1.11811   
     axis -90 45 2.85299e-015   XYZ
    dof rx rz
    limits (-45.0 45.0)
           (-45.0 45.0)
  end
  begin
     id 24 
     name rclavicle
     direction -0.923762 0.370785 0.0958234   
     length 3.54196  
     axis 0 0 0   XYZ 
    dof ry rz
    limits (-10.0 20.0)
           (-20.0 0.0)
  end
  begin
     id 25 
     name rhumerus
     direction -1 -4.48966e-011 1.18702e-017  
     length 5.30252   
     axis 180 30 90   XYZ
    dof rx ry rz
    limits (-90.0 60.0)
           (-90.0 90.0)
           (-90.0 90.0)
  end
  begin
     id 26 
     name rradius
     direction -1 -4.48966e-011 4.46736e-027   
     length 3.67875   
     axis 180 30 90   XYZ
    dof rx
    limits (-10.0 170.0)
  end
  begin
     id 27 
     name rwrist
     direction -1 -4.48966e-011 7.20928e-028   
     length 1.83937   
     axis -5.52449e-016 -90 -90   XYZ
    dof ry
    limits (-180.0 0.0)
  end
  begin
     id 28
     name rhand
     direction -1 -4.48973e-011 1.44186e-027   
     length 0.594811   
     axis -9.20027e-016 -90 -90   XYZ
    dof rx rz
    limits (-90.0 90.0)
           (-45.0 45.0)
  end
  begin
     id 29
     name rfingers
     direction -1 -4.48963e-011 2.88371e-027   
     length 0.479552   
     axis -1.84005e-015 -90 -90   XYZ
    dof rx
    limits (0.0 90.0)
  end
  begin
     id 30
     name rthumb
     direction -0.707107 -6.34932e-011 0.707107   
     length 0.688544   
     axis -90 -45 -2.85299e-015   XYZ
    dof rx rz
    limits (-45.0 45.0)
           (-45.0 45.0)
  end
:hierarchy
  begin
    root lhipjoint rhipjoint lowerback
    lhipjoint lfemur
    lfemur ltibia
    ltibia lfoot
    lfoot ltoes
    rhipjoint rfemur
    rfemur rtibia
    rtibia rfoot
    rfoot rtoes
    lowerback upperback
    upperback thorax
    thorax lowerneck lclavicle rclavicle
    lowerneck upperneck
    upperneck head
    lclavicle lhumerus
    lhumerus lradius
    lradius lwrist
    lwrist lhand lthumb
    lhand lfingers
    rclavicle rhumerus
    rhumerus rradius
    rradius rwrist
    rwrist rhand rthumb
    rhand rfingers
  end

#!OML:ASF E:\acrobat2\Project_11_07_03\Capture day 1\Session 1\Acrobat.ASF
:FULLY-SPECIFIED
:DEGREES
688
root 5.62472 28.1323 0.370513 3.93774 0.931077 -0.38219
lowerback -2.21391 0.599445 0.574944
upperback -0.171019 0.792613 -0.672203
thorax 1.08283 0.400223 -0.985835
lowerneck 2.12712 -1.87108 -1.40486
upperneck 2.54828 -2.57071 3.24412
head 0.491172 -1.28596 1.23376
rclavicle -4.89507e-015 -1.41137e-014
rhumerus -40.7264 -10.2382 -78.4489
rradius 23.4795
rwrist 6.16535
rhand -0.149388 -24.2749
rfingers 7.12502
rthumb 25.4473 -52.5962
lclavicle -4.89507e-015 -1.41137e-014
lhumerus -28.1432 -12.923 88.8914
lradius 19.9932
lwrist 7.94927
lhand -8.48004 -11.5428
lfingers 7.12502
lthumb 17.4469 17.6942
rfemur -4.44206 -0.9246 18.9187
rtibia 14.7495
rfoot -17.0138 -14.6693
rtoes -13.1403
lfemur -6.30353 -0.280833 -16.8543
ltibia 14.4066
lfoot 354.982 -4.28516
ltoes 26.586
689
root 5.61131 28.1281 0.366073 3.93886 1.03173 -0.356942
lowerback -2.17628 0.549121 0.478102
upperback -0.154147 0.728777 -0.737782
thorax 1.07729 0.368051 -1.00101
lowerneck 2.07232 -1.82602 -1.39649
upperneck 2.43883 -2.5067 3.1929
head 0.464122 -1.25435 1.21606
rclavicle 3.08116e-015 1.45113e-014
rhumerus -40.5621 -9.96098 -78.92
rradius 23.7258
rwrist 5.77557
rhand 0.134535 -24.3061
rfingers 7.12502
rthumb 25.7192 -52.5883
lclavicle 3.08116e-015 1.45113e-014
lhumerus -28.1583 -12.9703 88.7004
lradius 19.9144
lwrist 7.71336
lhand -8.2655 -11.4938
lfingers 7.12502
lthumb 17.6534 17.7248
rfemur -4.40392 -1.13016 19.128
rtibia 14.4623
rfoot -16.6371 -14.9689
rtoes -14.3709
lfemur -6.24019 -0.465893 -16.5689
ltibia 14.1246
lfoot 355.14 -4.07307
ltoes 26.5579
690
root 5.5969 28.1215 0.361559 3.96493 1.13654 -0.31005
lowerback -2.15271 0.501497 0.357517
upperback -0.145629 0.669024 -0.805475
thorax 1.07098 0.337775 -1.00477
lowerneck 2.03619 -1.78929 -1.39961
upperneck 2.36178 -2.45524 3.16155
head 0.444755 -1.22898 1.20666
rclavicle -9.77772e-015 -4.37326e-015
rhumerus -40.4435 -9.58177 -79.433
rradius 24.0256
rwrist 5.35895
rhand 0.291908 -24.2515
rfingers 7.12502
rthumb 25.8699 -52.5118
lclavicle -9.77772e-015 -4.37326e-015
lhumerus -28.1681 -13.0912 88.5317
lradius 19.861
lwrist 7.53446
lhand -8.05743 -11.4074
lfingers 7.12502
lthumb 17.8536 17.793
rfemur -4.38959 -1.3683 19.334
rtibia 14.2373
rfoot -16.3114 -15.2019
rtoes -15.6283
lfemur -6.22785 -0.645033 -16.2883
ltibia 13.8805
lfoot 355.307 -3.87087
ltoes 26.6304
691
root 5.58133 28.1129 0.356637 4.02 1.23406 -0.246328
lowerback -2.143 0.460608 0.216316
upperback -0.149836 0.618654 -0.874855
thorax 1.05948 0.312044 -0.998325
lowerneck 2.0262 -1.77691 -1.38552
upperneck 2.26999 -2.43567 3.11888
head 0.416926 -1.21973 1.19109
rclavicle -7.47927e-015 -1.07344e-014
rhumerus -40.4273 -9.09396 -79.9902
rradius 24.4281
rwrist 4.9101
rhand 0.289372 -24.0807
rfingers 7.12502
rthumb 25.8675 -52.3413
lclavicle -7.47927e-015 -1.07344e-014
lhumerus -28.1783 -13.2422 88.3758
lradius 19.8298
lwrist 7.37597
lhand -7.88968 -11.284
lfingers 7.12502
lthumb 18.015 17.9017
rfemur -4.42239 -1.6398 19.5451
rtibia 14.0906
rfoot -16.0696 -15.2965
rtoes -16.6772
lfemur -6.27474 -0.79681 -16.0071
ltibia 13.6842
lfoot 355.473 -3.67946
ltoes 26.5698
692
root 5.56531 28.1028 0.351331 4.1008 1.31238 -0.172269
lowerback -2.14336 0.429176 0.0698788
upperback -0.170411 0.580932 -0.948429
thorax 1.0372 0.292568 -0.992825
lowerneck 2.04463 -1.77152 -1.3461
upperneck 2.14797 -2.42412 3.04725
head 0.374602 -1.21476 1.16252
rclavicle 9.93923e-016 -1.11319e-014
rhumerus -40.5272 -8.54043 -80.5715
rradius 24.9358
rwrist 4.49503
rhand 0.189804 -23.8053
rfingers 7.12502
rthumb 25.7722 -52.0798
lclavicle 9.93923e-016 -1.11319e-014
lhumerus -28.1982 -13.3828 88.2206
lradius 19.8163
lwrist 7.22345
lhand -7.76925 -11.1506
lfingers 7.12502
lthumb 18.1309 18.0244
rfemur -4.50885 -1.92799 19.7667
rtibia 14.0133
rfoot -15.9123 -15.2358
rtoes -17.4233
lfemur -6.37383 -0.915623 -15.7264
ltibia 13.5353
lfoot 355.623 -3.4945
ltoes 26.3041
693
root 5.54959 28.092 0.345695 4.19715 1.36678 -0.102038
lowerback -2.14455 0.409228 -0.0596923
upperback -0.206697 0.557964 -1.02596
thorax 0.999844 0.280523 -1.00044
lowerneck 2.09209 -1.75351 -1.28259
upperneck 2.00064 -2.39452 2.93505
head 0.318535 -1.20102 1.11757
rclavicle -3.73964e-015 -8.74653e-015
rhumerus -40.7076 -7.96385 -81.1593
rradius 25.5046
rwrist 4.17033
rhand 0.066176 -23.4576
rfingers 7.12502
rthumb 25.6538 -51.7493
lclavicle -3.73964e-015 -8.74653e-015
lhumerus -28.237 -13.4887 88.0604
lradius 19.8247
lwrist 7.06677
lhand -7.70657 -11.0401
lfingers 7.12502
lthumb 18.1912 18.1292
rfemur -4.63753 -2.19545 20.0112
rtibia 13.9942
rfoot -15.8436 -15.0318
rtoes -17.6247
lfemur -6.50999 -1.01302 -15.4405
ltibia 13.4356
lfoot 355.744 -3.3099
ltoes 26.069
694
root 5.53484 28.0815 0.339454 4.29815 1.39698 -0.0503106
lowerback -2.14042 0.402347 -0.152948
upperback -0.25119 0.551332 -1.10288
thorax 0.951745 0.276804 -1.02737
lowerneck 2.1689 -1.71637 -1.19074
upperneck 1.85023 -2.33841 2.7542
head 0.255081 -1.17404 1.04672
rclavicle 2.6339e-015 -4.77083e-015
rhumerus -40.8876 -7.37571 -81.7474
rradius 26.0621
rwrist 3.94064
rhand -0.0337557 -23.0831
rfingers 7.12502
rthumb 25.558 -51.3885
lclavicle 2.6339e-015 -4.77083e-015
lhumerus -28.2836 -13.547 87.8951
lradius 19.8482
lwrist 6.89316
lhand -7.71322 -10.9698
lfingers 7.12502
lthumb 18.1848 18.2002
rfemur -4.7981 -2.39913 20.2909
rtibia 14.0235
rfoot -15.8554 -14.7587
rtoes -17.2711
lfemur -6.67024 -1.1032 -15.1419
ltibia 13.384
lfoot 355.826 -3.11417
ltoes 26.0899
695
root 5.52188 28.0727 0.332545 4.38946 1.41046 -0.0252858
lowerback -2.12106 0.40402 -0.195343
upperback -0.295178 0.554638 -1.1754
thorax 0.896236 0.278249 -1.07812
lowerneck 2.26092 -1.65573 -1.09713
upperneck 1.71349 -2.25124 2.5355
head 0.192604 -1.13139 0.964001
rclavicle -2.48481e-017 9.54166e-015
rhumerus -41.0293 -6.77929 -82.3267
rradius 26.575
rwrist 3.79681
rhand -0.058717 -22.7052
rfingers 7.12502
rthumb 25.5341 -51.014
lclavicle -2.48481e-017 9.54166e-015
lhumerus -28.321 -13.5432 87.7212
lradius 19.8753
lwrist 6.69923
lhand -7.78318 -10.9445
lfingers 7.12502
lthumb 18.1175 18.2317
rfemur -4.97673 -2.53726 20.6057
rtibia 14.1015
rfoot -15.9264 -14.5081
rtoes -16.6331
lfemur -6.82976 -1.1976 -14.8338
ltibia 13.362
lfoot 355.871 -2.89205
ltoes 26.3449
696
root 5.51122 28.0664 0.32514 4.45536 1.41252 -0.0348779
lowerback -2.07579 0.406812 -0.179896
upperback -0.328517 0.557802 -1.23617
thorax 0.837553 0.279798 -1.14944
lowerneck 2.34364 -1.58457 -1.03154
upperneck 1.5757 -2.15112 2.33018
head 0.132086 -1.08214 0.89027
rclavicle 5.86415e-015 -9.93923e-015
rhumerus -41.1227 -6.15987 -82.8941
rradius 27.0335
rwrist 3.70987
rhand -0.0121955 -22.3509
rfingers 7.12502
rthumb 25.5787 -50.6533
lclavicle 5.86415e-015 -9.93923e-015
lhumerus -28.3337 -13.4549 87.5359
lradius 19.8878
lwrist 6.47927
lhand -7.92446 -10.9637
lfingers 7.12502
lthumb 17.9815 18.2251
rfemur -5.15269 -2.62959 20.9543
rtibia 14.2245
rfoot -16.02 -14.333
rtoes -15.9248
lfemur -6.95859 -1.30097 -14.5164
ltibia 13.3501
lfoot 355.885 -2.63135
ltoes 26.7095
697
root 5.50318 28.0629 0.317394 4.49064 1.40322 -0.0791039
lowerback -2.0027 0.407219 -0.111207
upperback -0.34429 0.556399 -1.27811
thorax 0.781507 0.279189 -1.23158
lowerneck 2.39782 -1.53191 -0.995618
upperneck 1.4063 -2.07638 2.15105
head 0.0680936 -1.04549 0.829836
rclavicle 1.6027e-014 -7.55382e-015
rhumerus -41.1457 -5.48222 -83.4521
rradius 27.4148
rwrist 3.62185
rhand 0.093612 -22.0918
rfingers 7.12502
rthumb 25.68 -50.3797
lclavicle 1.6027e-014 -7.55382e-015
lhumerus -28.3008 -13.2665 87.3449
lradius 19.8504
lwrist 6.22829
lhand -8.14254 -11.0228
lfingers 7.12502
lthumb 17.7717 18.1851
rfemur -5.31229 -2.68897 21.3256
rtibia 14.38
rfoot -16.1157 -14.2366
rtoes -15.2533
lfemur -7.04391 -1.41172 -14.1954
ltibia 13.3414
lfoot 355.88 -2.33913
ltoes 27.1243
698
root 5.49803 28.0617 0.309768 4.49791 1.38527 -0.139478
lowerback -1.90648 0.405239 -0.00676549
upperback -0.341042 0.551097 -1.30641
thorax 0.732084 0.276716 -1.32
lowerneck 2.41213 -1.47884 -1.02618
upperneck 1.2124 -2.00302 2.04955
head 0.00486697 -1.00961 0.804437
rclavicle 1.02623e-014 7.55382e-015
rhumerus -41.1062 -4.74831 -83.9951
rradius 27.7171
rwrist 3.509
rhand 0.242178 -21.9248
rfingers 7.12502
rthumb 25.8223 -50.1921
lclavicle 1.02623e-014 7.55382e-015
lhumerus -28.2124 -12.9888 87.1548
lradius 19.7421
lwrist 5.94739
lhand -8.44058 -11.109
lfingers 7.12502
lthumb 17.4849 18.1247
rfemur -5.44433 -2.74523 21.6845
rtibia 14.5597
rfoot -16.2259 -14.1681
rtoes -14.5339
lfemur -7.08455 -1.52783 -13.8993
ltibia 13.3322
lfoot 355.854 -2.03206
ltoes 27.4405
699
root 5.49538 28.0621 0.302596 4.4859 1.3592 -0.197166
lowerback -1.80218 0.404418 0.11416
upperback -0.31945 0.547353 -1.33202
thorax 0.697049 0.275115 -1.41485
lowerneck 2.38218 -1.42772 -1.11498
upperneck 0.978661 -1.9335 2.03161
head -0.0618327 -0.975783 0.814498
rclavicle 1.28713e-014 6.75868e-015
rhumerus -41.0279 -3.99585 -84.5146
rradius 27.9574
rwrist 3.39483
rhand 0.375601 -21.7704
rfingers 7.12502
rthumb 25.9501 -50.019
lclavicle 1.28713e-014 6.75868e-015
lhumerus -28.0708 -12.6662 86.974
lradius 19.5645
lwrist 5.67038
lhand -8.83323 -11.2081
lfingers 7.12502
lthumb 17.107 18.0587
rfemur -5.54488 -2.81036 22.002
rtibia 14.7363
rfoot -16.3382 -14.1064
rtoes -13.789
lfemur -7.09466 -1.64094 -13.651
ltibia 13.3314
lfoot 355.793 -1.73775
ltoes 27.5278
